<svg width="27" height="27" viewBox="0 0 27 27" fill="none" xmlns="http://www.w3.org/2000/svg">
<path id="Vector" d="M23.453 0C22.4809 0 21.5782 0.504059 21.069 1.33269L15.582 9.47917C15.4033 9.74769 15.4758 10.1096 15.7443 10.2884C15.9619 10.4335 16.2498 10.4155 16.4481 10.245L21.849 5.56037C21.9387 5.4796 22.077 5.48783 22.1578 5.57757C22.1945 5.6187 22.2139 5.6718 22.2139 5.72639V20.3935C22.2139 20.5146 22.1159 20.6119 21.9947 20.6119C21.9297 20.6119 21.8684 20.5835 21.8272 20.5334L5.50112 0.990175C4.96941 0.362716 4.18866 0.000748478 3.36678 0H2.79618C1.25188 0 0 1.25193 0 2.79627V23.4537C0 24.9981 1.25188 26.25 2.79618 26.25C3.76838 26.25 4.67102 25.746 5.1803 24.9173L10.6673 16.7709C10.8459 16.5023 10.7734 16.1404 10.5049 15.9616C10.2873 15.8166 9.9994 15.8345 9.80125 16.005L4.4003 20.6897C4.31056 20.7704 4.17221 20.7622 4.09145 20.6724C4.0548 20.6313 4.03535 20.5782 4.0361 20.5236V5.85279C4.0361 5.73163 4.13406 5.63441 4.25521 5.63441C4.31953 5.63441 4.3816 5.66283 4.42274 5.71293L20.7467 25.2598C21.2783 25.8873 22.0591 26.2493 22.881 26.25H23.4516C24.9958 26.2508 26.2485 24.9996 26.25 23.4553V2.79627C26.25 1.25193 24.9973 0 23.453 0Z" fill="var(--fill-0, white)"/>
</svg>
