<svg preserveAspectRatio="none" width="100%" height="100%" overflow="visible" style="display: block;" viewBox="0 0 35 35" fill="none" xmlns="http://www.w3.org/2000/svg">
<path id="telegram" d="M17.4375 0C27 0 34.875 7.875 34.875 17.4375C34.875 27.0703 27 34.875 17.4375 34.875C7.80469 34.875 0 27.0703 0 17.4375C0 7.875 7.80469 0 17.4375 0ZM25.4531 11.8828C25.5234 11.6719 25.5234 11.4609 25.4531 11.1797C25.4531 11.0391 25.3125 10.8281 25.2422 10.7578C25.0312 10.5469 24.6797 10.5469 24.5391 10.5469C23.9062 10.5469 22.8516 10.8984 18 12.9375C16.3125 13.6406 12.9375 15.0469 7.875 17.2969C7.03125 17.6484 6.60938 17.9297 6.53906 18.2812C6.46875 18.8438 7.38281 19.0547 8.4375 19.4062C9.35156 19.6875 10.5469 20.0391 11.1797 20.0391C11.7422 20.0391 12.375 19.8281 13.0781 19.3359C17.7891 16.1016 20.25 14.4844 20.3906 14.4844C20.5312 14.4844 20.6719 14.4141 20.7422 14.4844C20.8828 14.625 20.8828 14.7656 20.8125 14.8359C20.7422 15.1875 16.3125 19.2656 16.0312 19.5469C15.0469 20.5312 13.9219 21.1641 15.6797 22.2891C17.1562 23.2734 18 23.9062 19.5469 24.8906C20.5312 25.5234 21.3047 26.2969 22.2891 26.2266C22.7812 26.1562 23.2734 25.7344 23.4844 24.3984C24.1172 21.375 25.2422 14.625 25.4531 11.8828Z" fill="var(--fill-0, black)"/>
</svg>
