<svg preserveAspectRatio="none" width="100%" height="100%" overflow="visible" style="display: block;" viewBox="0 0 15 15" fill="none" xmlns="http://www.w3.org/2000/svg">
<path id="Vector" d="M13.4017 0C12.8462 0 12.3304 0.282385 12.0394 0.746602L8.90403 5.31044C8.80186 5.46087 8.84331 5.66362 8.99675 5.76378C9.1211 5.84505 9.28561 5.83499 9.39889 5.73947L12.4851 3.11504C12.5364 3.06979 12.6154 3.0744 12.6616 3.12467C12.6825 3.14772 12.6937 3.17747 12.6937 3.20805V11.4249C12.6937 11.4927 12.6377 11.5472 12.5684 11.5472C12.5312 11.5472 12.4962 11.5313 12.4727 11.5032L3.1435 0.554718C2.83966 0.203201 2.39352 0.000419314 1.92388 0H1.59782C0.715362 0 0 0.701356 0 1.56653V13.1393C0 14.0045 0.715362 14.7058 1.59782 14.7058C2.15336 14.7058 2.66915 14.4235 2.96017 13.9592L6.09558 9.3954C6.19769 9.24497 6.15624 9.04222 6.00279 8.94206C5.87845 8.86079 5.71394 8.87084 5.60071 8.96636L2.51446 11.5908C2.46318 11.636 2.38412 11.6314 2.33797 11.5811C2.31703 11.5581 2.30592 11.5284 2.30634 11.4978V3.27886C2.30634 3.21098 2.36232 3.15652 2.43155 3.15652C2.46831 3.15652 2.50377 3.17244 2.52728 3.20051L11.8552 14.1511C12.159 14.5026 12.6052 14.7054 13.0749 14.7058H13.4009C14.2833 14.7063 14.9992 14.0053 15 13.1402V1.56653C15 0.701356 14.2842 0 13.4017 0Z" fill="var(--fill-0, black)"/>
</svg>
