<svg preserveAspectRatio="none" width="100%" height="100%" overflow="visible" style="display: block;" viewBox="0 0 46 40" fill="none" xmlns="http://www.w3.org/2000/svg">
<g id="Frame 11079">
<path id="medium" d="M13.1562 7.23828C20.1875 7.23828 25.8828 12.9336 25.8828 19.9648C25.8828 27.0664 20.1875 32.7617 13.1562 32.7617C6.125 32.7617 0.5 27.0664 0.5 19.9648C0.5 12.9336 6.125 7.23828 13.1562 7.23828ZM33.4062 7.94141C36.9219 7.94141 39.8047 13.3555 39.8047 20.0352C39.8047 26.6445 36.9219 32.0586 33.4062 32.0586C29.8906 32.0586 27.0781 26.6445 27.0781 20.0352C27.0781 13.3555 29.8906 7.94141 33.4062 7.94141ZM43.25 9.20703C44.4453 9.20703 45.5 14.0586 45.5 19.9648C45.5 25.9414 44.4453 30.793 43.25 30.793C41.9844 30.793 41 25.9414 41 20.0352C41 14.0586 41.9844 9.20703 43.25 9.20703Z" fill="var(--fill-0, black)"/>
</g>
</svg>
