<svg preserveAspectRatio="none" width="100%" height="100%" overflow="visible" style="display: block;" viewBox="0 0 35 35" fill="none" xmlns="http://www.w3.org/2000/svg">
<path id="github" d="M11.6016 27.4219C11.6016 27.2812 11.4609 27.1406 11.25 27.1406C11.0391 27.1406 10.8984 27.2812 10.8984 27.4219C10.8984 27.5625 11.0391 27.7031 11.25 27.6328C11.4609 27.6328 11.6016 27.5625 11.6016 27.4219ZM9.42188 27.0703C9.49219 26.9297 9.70312 26.8594 9.91406 26.9297C10.125 27 10.1953 27.1406 10.1953 27.2812C10.125 27.4219 9.91406 27.4922 9.77344 27.4219C9.5625 27.4219 9.42188 27.2109 9.42188 27.0703ZM12.5859 27C12.7266 26.9297 12.9375 27.0703 12.9375 27.2109C13.0078 27.3516 12.8672 27.4219 12.6562 27.4922C12.4453 27.5625 12.2344 27.4922 12.2344 27.3516C12.2344 27.1406 12.375 27 12.5859 27ZM17.1562 0C26.9297 0 34.875 7.45312 34.875 17.1562C34.875 24.9609 30.0938 31.6406 23.0625 33.9609C22.1484 34.1719 21.7969 33.6094 21.7969 33.1172C21.7969 32.5547 21.8672 29.6016 21.8672 27.2812C21.8672 25.5938 21.3047 24.5391 20.6719 23.9766C24.6094 23.5547 28.7578 22.9922 28.7578 16.2422C28.7578 14.2734 28.0547 13.3594 26.9297 12.0938C27.0703 11.6016 27.7031 9.77344 26.7188 7.3125C25.2422 6.82031 21.8672 9.21094 21.8672 9.21094C20.4609 8.78906 18.9844 8.64844 17.4375 8.64844C15.9609 8.64844 14.4844 8.78906 13.0781 9.21094C13.0781 9.21094 9.63281 6.89062 8.22656 7.3125C7.24219 9.77344 7.80469 11.6016 8.01562 12.0938C6.89062 13.3594 6.32812 14.2734 6.32812 16.2422C6.32812 22.9922 10.3359 23.5547 14.2734 23.9766C13.7109 24.4688 13.2891 25.2422 13.1484 26.3672C12.0938 26.8594 9.5625 27.6328 8.01562 24.8906C7.03125 23.2031 5.27344 23.0625 5.27344 23.0625C3.58594 23.0625 5.20312 24.1875 5.20312 24.1875C6.32812 24.6797 7.10156 26.7188 7.10156 26.7188C8.15625 29.8828 13.0781 28.8281 13.0781 28.8281C13.0781 30.3047 13.0781 32.6953 13.0781 33.1875C13.0781 33.6094 12.7969 34.1719 11.8828 34.0312C4.85156 31.6406 0 24.9609 0 17.1562C0 7.45312 7.45312 0 17.1562 0ZM6.82031 24.2578C6.89062 24.1875 7.03125 24.2578 7.17188 24.3281C7.3125 24.4688 7.3125 24.6797 7.24219 24.75C7.10156 24.8203 6.96094 24.75 6.82031 24.6797C6.75 24.5391 6.67969 24.3281 6.82031 24.2578ZM6.04688 23.6953C6.11719 23.625 6.1875 23.625 6.32812 23.6953C6.46875 23.7656 6.53906 23.8359 6.53906 23.9062C6.46875 24.0469 6.32812 24.0469 6.1875 23.9766C6.04688 23.9062 5.97656 23.8359 6.04688 23.6953ZM8.29688 26.2266C8.4375 26.0859 8.64844 26.1562 8.78906 26.2969C8.92969 26.4375 8.92969 26.6484 8.85938 26.7188C8.78906 26.8594 8.57812 26.7891 8.4375 26.6484C8.22656 26.5078 8.22656 26.2969 8.29688 26.2266ZM7.52344 25.1719C7.66406 25.1016 7.80469 25.1719 7.94531 25.3125C8.01562 25.4531 8.01562 25.6641 7.94531 25.7344C7.80469 25.8047 7.66406 25.7344 7.52344 25.5938C7.38281 25.4531 7.38281 25.2422 7.52344 25.1719Z" fill="var(--fill-0, black)"/>
</svg>
