<svg preserveAspectRatio="none" width="100%" height="100%" overflow="visible" style="display: block;" viewBox="0 0 40 40" fill="none" xmlns="http://www.w3.org/2000/svg">
<g id="Frame 11080">
<path id="Vector" d="M23.453 6.875C22.4809 6.875 21.5782 7.37906 21.069 8.20769L15.582 16.3542C15.4033 16.6227 15.4758 16.9846 15.7443 17.1634C15.9619 17.3085 16.2498 17.2905 16.4481 17.12L21.849 12.4354C21.9387 12.3546 22.077 12.3628 22.1578 12.4526C22.1945 12.4937 22.2139 12.5468 22.2139 12.6014V27.2685C22.2139 27.3896 22.1159 27.4869 21.9947 27.4869C21.9297 27.4869 21.8684 27.4585 21.8272 27.4084L5.50112 7.86517C4.96941 7.23771 4.18866 6.87575 3.36678 6.875H2.79618C1.25188 6.875 0 8.12692 0 9.67126V30.3287C0 31.8731 1.25188 33.125 2.79618 33.125C3.76838 33.125 4.67102 32.621 5.1803 31.7923L10.6673 23.6459C10.8459 23.3773 10.7734 23.0154 10.5049 22.8366C10.2873 22.6916 9.9994 22.7095 9.80125 22.88L4.4003 27.5647C4.31056 27.6454 4.17221 27.6371 4.09145 27.5474C4.0548 27.5063 4.03535 27.4532 4.0361 27.3986V12.7278C4.0361 12.6066 4.13406 12.5094 4.25521 12.5094C4.31953 12.5094 4.3816 12.5378 4.42274 12.5879L20.7467 32.1348C21.2783 32.7623 22.0591 33.1243 22.881 33.125H23.4516C24.9958 33.1258 26.2485 31.8746 26.25 30.3303V9.67126C26.25 8.12692 24.9973 6.875 23.453 6.875Z" fill="var(--fill-0, black)"/>
</g>
</svg>
