<svg width="1000" height="81" viewBox="0 0 1000 81" fill="none" xmlns="http://www.w3.org/2000/svg">
<path d="M71.5347 0C68.5693 0 65.816 1.55538 64.263 4.11229L47.527 29.2499C46.9819 30.0787 47.2032 31.1954 48.0221 31.747C48.6858 32.1946 49.564 32.1392 50.1685 31.6133L66.642 17.1577C66.9158 16.9085 67.3375 16.9339 67.584 17.2108C67.6958 17.3377 67.7551 17.5016 67.7551 17.67V62.9286C67.7551 63.3023 67.4562 63.6022 67.0866 63.6022C66.8882 63.6022 66.7013 63.5147 66.5759 63.36L16.7791 3.0554C15.1573 1.11924 12.7759 0.00230959 10.2691 0H8.52869C3.8184 0 0 3.86307 0 8.62849V72.3714C0 77.1371 3.8184 81 8.52869 81C11.494 81 14.2472 79.4448 15.8006 76.8878L32.5365 51.7501C33.0814 50.9216 32.8604 49.8048 32.0412 49.253C31.3774 48.8054 30.4995 48.8608 29.895 49.387L13.4214 63.8424C13.1477 64.0916 12.7257 64.066 12.4794 63.7891C12.3676 63.6623 12.3083 63.4985 12.3106 63.33V18.06C12.3106 17.6862 12.6094 17.3862 12.9789 17.3862C13.1751 17.3862 13.3644 17.4739 13.4899 17.6285L63.2798 77.9445C64.9016 79.8809 67.2829 80.9979 69.7898 81H71.5302C76.2404 81.0023 80.0612 77.1415 80.0656 72.3764V8.62849C80.0656 3.86307 76.2449 0 71.5347 0Z" fill="white"/>
<path d="M135.457 12.4321C129.386 12.4321 124.971 13.8633 121.22 17.1649L114.597 22.8874C114.045 23.3288 112.94 23.6587 112.169 22.9966C111.396 22.3367 111.286 21.4562 111.948 20.5756L115.48 15.2922C116.032 14.5209 115.592 13.5311 114.597 13.5311H106.098C105.106 13.5311 104.332 14.3024 104.332 15.2922V66.8062C104.332 67.796 105.106 68.5676 106.098 68.5676H114.928C115.92 68.5676 116.694 67.796 116.694 66.8062V37.7476C116.694 24.4301 127.841 22.339 132.035 22.339C140.974 22.339 144.175 28.7237 144.175 33.5654V66.8062C144.175 67.796 144.949 68.5676 145.941 68.5676H154.771C155.763 68.5676 156.537 67.796 156.537 66.8062V32.4643C156.537 20.1365 148.481 12.4321 135.457 12.4321Z" fill="white"/>
<path d="M191.546 11.6611C174.439 11.6611 163.513 22.1186 163.513 36.3168V44.1328C163.513 59.1021 174.439 69.3392 191.546 69.3392C206.666 69.3392 217.262 61.5234 218.366 50.9566C218.478 49.8553 217.705 49.0863 216.6 49.0863H207.992C207.218 49.0863 206.557 49.5276 206.335 50.2966C205.231 53.819 200.045 59.1021 191.546 59.1021C183.047 59.1021 175.101 52.9382 175.21 44.1328L175.322 34.3375C175.432 26.9628 183.159 21.9002 191.546 21.9002C199.162 21.9002 206.557 26.1939 207.328 33.2385C207.392 34.053 206.83 34.7877 206.025 34.9426L181.279 39.7324C180.287 39.9529 179.513 40.8334 179.513 41.9324V42.0416C179.513 43.0314 180.506 43.912 181.941 43.912H217.481C218.457 43.912 219.247 43.1226 219.247 42.1509V35.218C219.247 22.1209 207.878 11.6634 191.544 11.6634L191.546 11.6611Z" fill="white"/>
<path d="M253.154 11.8294C239.358 11.8294 227.439 19.8637 227.439 30.4303C227.439 31.3111 228.212 31.9709 229.205 31.9709H238.144C239.027 31.9709 239.688 31.3111 239.8 30.4303C240.683 25.5885 246.533 22.0663 252.824 22.0663C260.328 22.0663 265.407 26.6897 265.407 34.6149V44.192C265.407 53.9872 258.121 58.9407 249.07 58.9407C242.007 58.9407 237.922 56.2988 237.922 52.0053C237.922 48.2623 239.91 45.0701 248.076 43.1996L259.885 40.0074C261.099 39.6774 261.541 38.6855 261.32 37.5865C261.211 36.7057 260.218 36.2644 259.333 36.2644H247.083C236.709 36.2644 226.223 42.8675 226.223 52.5538V54.0941C226.223 64.0009 235.605 69.1729 246.31 69.1729C253.152 69.1729 259.002 66.5312 262.643 63.4504L268.052 58.8271C268.937 58.0558 269.819 58.0558 270.59 58.8271C271.252 59.4868 271.031 60.4787 270.478 61.2479L267.168 66.422C266.617 67.1933 267.055 68.1831 268.05 68.1831H275.997C276.989 68.1831 277.764 67.4118 277.764 66.422V33.0699C277.764 20.3029 268.603 11.8271 253.15 11.8271L253.154 11.8294Z" fill="white"/>
<path d="M323.48 12.9824H311.116C306.814 12.9824 302.617 15.6241 299.638 18.1566L294.782 22.3387C294.231 22.7801 293.236 23.11 292.575 22.5594C291.801 22.0087 291.47 20.9075 292.134 20.0269L295.667 14.7435C296.218 13.9722 295.777 12.9824 294.782 12.9824H286.507C285.512 12.9824 284.74 13.7538 284.74 14.7435V66.2574C284.74 67.2472 285.512 68.0185 286.507 68.0185H295.557C296.549 68.0185 297.323 67.2472 297.323 66.2574V39.8407C297.323 28.5028 301.958 23.4399 312.003 23.4399H323.48C324.473 23.4399 325.244 22.6686 325.244 21.6788V14.7435C325.244 13.7538 324.473 12.9824 323.48 12.9824Z" fill="white"/>
<path d="M348.084 14.1613C348.084 13.3765 348.724 12.7402 349.512 12.7402H353.745C354.533 12.7402 355.173 13.3765 355.173 14.1613V35.8402C355.173 36.6248 355.811 37.2611 356.598 37.2611H383.643C384.43 37.2611 385.071 36.6248 385.071 35.8402V14.1613C385.071 13.3765 385.709 12.7402 386.499 12.7402H390.769C391.556 12.7402 392.197 13.3765 392.197 14.1613V66.8381C392.197 67.623 391.556 68.2593 390.769 68.2593H386.499C385.709 68.2593 385.071 67.623 385.071 66.8381V44.9281C385.071 44.1432 384.43 43.507 383.643 43.507H356.598C355.811 43.507 355.173 44.1432 355.173 44.9281V66.8381C355.173 67.623 354.533 68.2593 353.745 68.2593H349.512C348.724 68.2593 348.084 67.623 348.084 66.8381V14.1613Z" fill="white"/>
<path d="M399.333 40.5C399.333 22.0709 410.603 11.6611 427.141 11.6611C443.677 11.6611 454.947 22.0709 454.947 40.5C454.947 58.9294 443.677 69.3392 427.141 69.3392C410.603 69.3392 399.333 58.9294 399.333 40.5ZM406.577 40.5C406.577 54.9967 414.708 63.2474 427.141 63.2474C439.572 63.2474 447.706 54.9967 447.706 40.5C447.706 26.0035 439.572 17.7528 427.141 17.7528C414.708 17.7528 406.577 26.0035 406.577 40.5Z" fill="white"/>
<path d="M462.087 13.6989C462.087 12.9141 462.725 12.2778 463.512 12.2778H467.746C468.533 12.2778 469.174 12.9141 469.174 13.6989V47.1701C469.174 57.1172 474.402 62.5149 484.588 62.5149C494.772 62.5149 500 57.1172 500 47.1701V13.6989C500 12.9141 500.641 12.2778 501.428 12.2778H505.698C506.489 12.2778 507.126 12.9141 507.126 13.6989V47.3243C507.126 60.3172 499.73 68.7221 484.588 68.7221C469.599 68.7221 462.087 60.3172 462.087 47.3243V13.6989Z" fill="white"/>
<path d="M515.698 26.8129C515.698 17.5982 523.17 11.8535 536.299 11.8535C549.43 11.8535 557.64 17.791 558.259 28.3937C558.259 29.0323 557.74 29.5501 557.097 29.5501H552.923C552.16 29.5501 551.54 28.9481 551.443 28.194C550.467 20.5976 544.286 17.5982 536.338 17.5982C527.973 17.5982 522.629 20.8753 522.629 26.7742C522.629 32.6731 527.315 35.102 535.023 36.1046L540.947 36.9141C552.023 38.3791 558.8 42.813 558.8 52.7987C558.8 62.9773 551.055 69.1461 537.695 69.1461C524.333 69.1461 515.076 63.0157 514.265 52.1818C514.265 51.5432 514.784 51.0253 515.425 51.0253H519.632C520.367 51.0253 520.973 51.584 521.099 52.3033C522.519 60.2988 529.367 63.4013 537.616 63.4013C546.175 63.4013 551.908 59.9314 551.908 53.1073C551.908 46.5144 546.679 43.9697 538.973 42.9674L533.047 42.1577C521.971 40.6926 515.698 36.1046 515.698 26.8129Z" fill="white"/>
<path d="M565.939 14.1613C565.939 13.3765 566.577 12.7402 567.367 12.7402H603.317C604.105 12.7402 604.745 13.3765 604.745 14.1613V17.2952C604.745 18.08 604.105 18.7162 603.317 18.7162H574.415C573.627 18.7162 572.987 19.3524 572.987 20.1373V35.8015C572.987 36.5864 573.627 37.2227 574.415 37.2227H599.443C600.233 37.2227 600.871 37.8586 600.871 38.6436V41.7775C600.871 42.5624 600.233 43.1986 599.443 43.1986H574.415C573.627 43.1986 572.987 43.8349 572.987 44.6195V60.8621C572.987 61.647 573.627 62.2833 574.415 62.2833H603.858C604.648 62.2833 605.286 62.9195 605.286 63.7042V66.8381C605.286 67.623 604.648 68.2593 603.858 68.2593H567.367C566.577 68.2593 565.939 67.623 565.939 66.8381V14.1613Z" fill="white"/>
<path d="M628.126 40.5C628.126 22.0709 639.396 11.6611 655.934 11.6611C672.47 11.6611 683.74 22.0709 683.74 40.5C683.74 58.9294 672.47 69.3392 655.934 69.3392C639.396 69.3392 628.126 58.9294 628.126 40.5ZM635.367 40.5C635.367 54.9967 643.501 63.2474 655.934 63.2474C668.365 63.2474 676.499 54.9967 676.499 40.5C676.499 26.0035 668.365 17.7528 655.934 17.7528C643.501 17.7528 635.367 26.0035 635.367 40.5Z" fill="white"/>
<path d="M690.877 14.1613C690.877 13.3765 691.517 12.7402 692.305 12.7402H726.785C727.572 12.7402 728.213 13.3765 728.213 14.1613V17.2952C728.213 18.08 727.572 18.7162 726.785 18.7162H699.355C698.565 18.7162 697.927 19.3524 697.927 20.1373V36.3027C697.927 37.0876 698.565 37.7238 699.355 37.7238H723.609C724.397 37.7238 725.037 38.3601 725.037 39.1447V42.2786C725.037 43.0635 724.397 43.6998 723.609 43.6998H699.355C698.565 43.6998 697.927 44.336 697.927 45.1207V66.8381C697.927 67.623 697.289 68.2593 696.499 68.2593H692.305C691.517 68.2593 690.877 67.623 690.877 66.8381V14.1613Z" fill="white"/>
<path d="M752.483 26.8129C752.483 17.5982 759.958 11.8535 773.087 11.8535C786.218 11.8535 794.428 17.791 795.047 28.3937C795.047 29.0323 794.528 29.5501 793.885 29.5501H789.712C788.948 29.5501 788.328 28.9481 788.231 28.194C787.255 20.5976 781.074 17.5982 773.126 17.5982C764.761 17.5982 759.418 20.8753 759.418 26.7742C759.418 32.6731 764.103 35.102 771.809 36.1046L777.735 36.9141C788.811 38.3791 795.588 42.813 795.588 52.7987C795.588 62.9773 787.843 69.1461 774.483 69.1461C761.121 69.1461 751.864 63.0157 751.053 52.1818C751.053 51.5432 751.572 51.0253 752.213 51.0253H756.42C757.153 51.0253 757.761 51.584 757.887 52.3033C759.307 60.2988 766.155 63.4013 774.404 63.4013C782.964 63.4013 788.696 59.9314 788.696 53.1073C788.696 46.5144 783.467 43.9697 775.761 42.9674L769.835 42.1577C758.759 40.6926 752.483 36.1046 752.483 26.8129Z" fill="white"/>
<path d="M802.727 14.1613C802.727 13.3765 803.364 12.7402 804.154 12.7402H848.703C849.49 12.7402 850.131 13.3765 850.131 14.1613V17.4494C850.131 18.2342 849.49 18.8704 848.703 18.8704H831.419C830.629 18.8704 829.992 19.5067 829.992 20.2915V66.8381C829.992 67.623 829.351 68.2593 828.564 68.2593H824.294C823.503 68.2593 822.866 67.623 822.866 66.8381V20.2915C822.866 19.5067 822.225 18.8704 821.438 18.8704H804.154C803.364 18.8704 802.727 18.2342 802.727 17.4494V14.1613Z" fill="white"/>
<path d="M870.116 13.6654C870.326 13.1092 870.859 12.7402 871.454 12.7402H878.612C879.208 12.7402 879.741 13.1088 879.948 13.6646L899.911 66.9369C899.953 67.0463 899.974 67.1624 899.974 67.2794C899.974 67.8205 899.533 68.2593 898.99 68.2593H893.882C893.284 68.2593 892.748 67.8874 892.544 67.328L887.344 53.2288C887.137 52.6694 886.601 52.2975 886.003 52.2975H863.872C863.271 52.2975 862.735 52.6707 862.53 53.2317L857.365 67.3251C857.16 67.8859 856.625 68.2593 856.024 68.2593H851.116C850.57 68.2593 850.129 67.8203 850.129 67.2791C850.129 67.1624 850.15 67.0466 850.192 66.9371L870.116 13.6654ZM865.628 44.2953C865.286 45.2226 865.977 46.2058 866.969 46.2058H882.906C883.898 46.2058 884.586 45.2242 884.247 44.2968L875.37 20.1242C875.307 19.9501 875.142 19.8343 874.956 19.8343C874.769 19.8343 874.601 19.9499 874.538 20.1237L865.628 44.2953Z" fill="white"/>
<path d="M907.11 14.1613C907.11 13.3765 907.751 12.7402 908.538 12.7402H912.732C913.52 12.7402 914.16 13.3765 914.16 14.1613V36.4276C914.16 36.675 914.36 36.8757 914.609 36.8757C914.719 36.8757 914.824 36.836 914.906 36.7641L941.987 13.0934C942.249 12.8658 942.583 12.7402 942.929 12.7402H949.958C950.399 12.7402 950.759 13.0963 950.759 13.5355C950.759 13.7651 950.659 13.9835 950.483 14.1346L922.042 38.8591C921.394 39.4227 921.391 40.4245 922.034 40.9928L951.341 66.8645C951.512 67.0158 951.609 67.2332 951.609 67.4613C951.609 67.9021 951.252 68.2593 950.808 68.2593H943.438C943.089 68.2593 942.751 68.1315 942.491 67.9005L914.906 43.5041C914.824 43.4314 914.719 43.3912 914.609 43.3912C914.36 43.3912 914.16 43.5914 914.16 43.8383V66.8381C914.16 67.623 913.52 68.2593 912.732 68.2593H908.538C907.751 68.2593 907.11 67.623 907.11 66.8381V14.1613Z" fill="white"/>
<path d="M958.748 14.1613C958.748 13.3765 959.386 12.7402 960.173 12.7402H996.126C996.913 12.7402 997.554 13.3765 997.554 14.1613V17.2952C997.554 18.08 996.913 18.7162 996.126 18.7162H967.223C966.436 18.7162 965.795 19.3524 965.795 20.1373V35.8015C965.795 36.5864 966.436 37.2227 967.223 37.2227H992.252C993.042 37.2227 993.68 37.8586 993.68 38.6436V41.7775C993.68 42.5624 993.042 43.1986 992.252 43.1986H967.223C966.436 43.1986 965.795 43.8349 965.795 44.6195V60.8621C965.795 61.647 966.436 62.2833 967.223 62.2833H996.667C997.457 62.2833 998.094 62.9195 998.094 63.7042V66.8381C998.094 67.623 997.457 68.2593 996.667 68.2593H960.173C959.386 68.2593 958.748 67.623 958.748 66.8381V14.1613Z" fill="white"/>
</svg>
