<svg preserveAspectRatio="none" width="100%" height="100%" overflow="visible" style="display: block;" viewBox="0 0 274 22" fill="none" xmlns="http://www.w3.org/2000/svg">
<g id="Near House of Stake logo_balck2 2" clip-path="url(#clip0_4202_371)">
<path id="Vector" d="M19.6005 0C18.788 0 18.0336 0.42245 17.6081 1.11692L13.0224 7.94441C12.873 8.16952 12.9337 8.47284 13.158 8.62265C13.3399 8.74422 13.5805 8.72917 13.7462 8.58632L18.2599 4.66012C18.3349 4.59243 18.4505 4.59932 18.518 4.67453C18.5487 4.709 18.5649 4.75351 18.5649 4.79926V17.0917C18.5649 17.1932 18.483 17.2747 18.3817 17.2747C18.3274 17.2747 18.2762 17.2509 18.2418 17.2089L4.59748 0.829861C4.15311 0.30399 3.50061 0.000627296 2.81374 0H2.33686C1.04624 0 0 1.04923 0 2.34354V19.6564C0 20.9508 1.04624 22 2.33686 22C3.14936 22 3.90373 21.5776 4.32935 20.8831L8.915 14.0556C9.0643 13.8305 9.00374 13.5272 8.77929 13.3773C8.59742 13.2558 8.35686 13.2708 8.19123 13.4138L3.67748 17.3399C3.60248 17.4076 3.48686 17.4007 3.41936 17.3254C3.38873 17.291 3.37248 17.2465 3.37311 17.2007V4.90519C3.37311 4.80365 3.45498 4.72217 3.55623 4.72217C3.60998 4.72217 3.66186 4.74599 3.69623 4.78798L17.3387 21.1701C17.783 21.696 18.4355 21.9994 19.1224 22H19.5993C20.8899 22.0006 21.9368 20.952 21.938 19.6578V2.34354C21.938 1.04923 20.8911 0 19.6005 0Z" fill="var(--fill-0, white)"/>
<path id="Vector_2" d="M37.1153 3.37669C35.4519 3.37669 34.2422 3.76541 33.2145 4.66212L31.3995 6.21638C31.2483 6.33628 30.9457 6.42588 30.7345 6.24604C30.5224 6.06683 30.4925 5.82766 30.6738 5.5885L31.6415 4.15351C31.7928 3.944 31.6722 3.67517 31.3995 3.67517H29.0709C28.799 3.67517 28.587 3.88468 28.587 4.15351V18.145C28.587 18.4138 28.799 18.6234 29.0709 18.6234H31.4903C31.7622 18.6234 31.9741 18.4138 31.9741 18.145V10.2525C31.9741 6.63539 35.0286 6.06744 36.1776 6.06744C38.627 6.06744 39.5041 7.80155 39.5041 9.11659V18.145C39.5041 18.4138 39.716 18.6234 39.988 18.6234H42.4072C42.6792 18.6234 42.8911 18.4138 42.8911 18.145V8.81753C42.8911 5.46922 40.6838 3.37669 37.1153 3.37669Z" fill="var(--fill-0, white)"/>
<path id="Vector_3" d="M52.4838 3.16721C47.7964 3.16721 44.8026 6.00753 44.8026 9.86381V11.9867C44.8026 16.0524 47.7964 18.8329 52.4838 18.8329C56.6267 18.8329 59.5298 16.7101 59.8324 13.8401C59.8631 13.5409 59.6512 13.3321 59.3485 13.3321H56.9898C56.778 13.3321 56.5966 13.4519 56.536 13.6608C56.2334 14.6175 54.8124 16.0524 52.4838 16.0524C50.1551 16.0524 47.9777 14.3783 48.0077 11.9867L48.0383 9.32623C48.0684 7.32323 50.1857 5.9482 52.4838 5.9482C54.5706 5.9482 56.5966 7.11437 56.808 9.02773C56.8254 9.24894 56.6716 9.4485 56.451 9.49059L49.6707 10.7915C49.3987 10.8514 49.1867 11.0906 49.1867 11.389V11.4187C49.1867 11.6875 49.4587 11.9267 49.8519 11.9267H59.5899C59.8574 11.9267 60.0737 11.7123 60.0737 11.4484V9.56539C60.0737 6.00815 56.9586 3.16783 52.4832 3.16783L52.4838 3.16721Z" fill="var(--fill-0, white)"/>
<path id="Vector_4" d="M69.3644 3.21288C65.584 3.21288 62.3182 5.39503 62.3182 8.26497C62.3182 8.50421 62.5303 8.6834 62.8021 8.6834H65.2514C65.4934 8.6834 65.6746 8.50421 65.7053 8.26497C65.9473 6.94991 67.5501 5.99325 69.2737 5.99325C71.3298 5.99325 72.7215 7.249 72.7215 9.40152V12.0027C72.7215 14.6631 70.7253 16.0085 68.2453 16.0085C66.3099 16.0085 65.1908 15.291 65.1908 14.1249C65.1908 13.1082 65.7353 12.2412 67.9728 11.7332L71.2086 10.8662C71.5411 10.7765 71.6624 10.5071 71.6017 10.2086C71.5717 9.96941 71.2998 9.84954 71.0573 9.84954H67.7008C64.8582 9.84954 61.9851 11.643 61.9851 14.2738V14.6922C61.9851 17.3829 64.5557 18.7876 67.4889 18.7876C69.3637 18.7876 70.9666 18.0702 71.9642 17.2334L73.4464 15.9777C73.6887 15.7682 73.9304 15.7682 74.1418 15.9777C74.323 16.1569 74.2626 16.4263 74.1109 16.6352L73.204 18.0405C73.053 18.25 73.1731 18.5188 73.4457 18.5188H75.6233C75.8951 18.5188 76.1073 18.3093 76.1073 18.0405V8.98189C76.1073 5.51431 73.5974 3.21226 69.3631 3.21226L69.3644 3.21288Z" fill="var(--fill-0, white)"/>
<path id="Vector_5" d="M88.6336 3.52604H85.2456C84.0669 3.52604 82.917 4.24352 82.1008 4.93136L80.7703 6.06724C80.6193 6.18713 80.3467 6.27673 80.1655 6.12718C79.9533 5.97763 79.8627 5.67853 80.0447 5.43935L81.0127 4.00436C81.1637 3.79486 81.0429 3.52604 80.7703 3.52604H78.5028C78.2302 3.52604 78.0188 3.73554 78.0188 4.00436V17.9958C78.0188 18.2646 78.2302 18.4741 78.5028 18.4741H80.9825C81.2543 18.4741 81.4665 18.2646 81.4665 17.9958V10.8209C81.4665 7.74144 82.7365 6.36635 85.4887 6.36635H88.6336C88.9054 6.36635 89.1169 6.15685 89.1169 5.88802V4.00436C89.1169 3.73554 88.9054 3.52604 88.6336 3.52604Z" fill="var(--fill-0, white)"/>
<path id="Vector_6" d="M95.375 3.84634C95.375 3.63317 95.5505 3.46037 95.7662 3.46037H96.9262C97.142 3.46037 97.3175 3.63317 97.3175 3.84634V9.73443C97.3175 9.94755 97.4922 10.1204 97.708 10.1204H105.118C105.334 10.1204 105.509 9.94755 105.509 9.73443V3.84634C105.509 3.63317 105.684 3.46037 105.901 3.46037H107.071C107.286 3.46037 107.462 3.63317 107.462 3.84634V18.1536C107.462 18.3668 107.286 18.5396 107.071 18.5396H105.901C105.684 18.5396 105.509 18.3668 105.509 18.1536V12.2028C105.509 11.9896 105.334 11.8168 105.118 11.8168H97.708C97.4922 11.8168 97.3175 11.9896 97.3175 12.2028V18.1536C97.3175 18.3668 97.142 18.5396 96.9262 18.5396H95.7662C95.5505 18.5396 95.375 18.3668 95.375 18.1536V3.84634Z" fill="var(--fill-0, white)"/>
<path id="Vector_7" d="M109.417 11C109.417 5.99457 112.505 3.16721 117.037 3.16721C121.568 3.16721 124.656 5.99457 124.656 11C124.656 16.0055 121.568 18.8329 117.037 18.8329C112.505 18.8329 109.417 16.0055 109.417 11ZM111.402 11C111.402 14.9374 113.63 17.1783 117.037 17.1783C120.443 17.1783 122.671 14.9374 122.671 11C122.671 7.06268 120.443 4.82174 117.037 4.82174C113.63 4.82174 111.402 7.06268 111.402 11Z" fill="var(--fill-0, white)"/>
<path id="Vector_8" d="M126.612 3.72072C126.612 3.50756 126.786 3.33475 127.002 3.33475H128.162C128.378 3.33475 128.553 3.50756 128.553 3.72072V12.8117C128.553 15.5133 129.986 16.9794 132.777 16.9794C135.567 16.9794 137 15.5133 137 12.8117V3.72072C137 3.50756 137.175 3.33475 137.391 3.33475H138.561C138.778 3.33475 138.953 3.50756 138.953 3.72072V12.8535C138.953 16.3825 136.926 18.6653 132.777 18.6653C128.67 18.6653 126.612 16.3825 126.612 12.8535V3.72072Z" fill="var(--fill-0, white)"/>
<path id="Vector_9" d="M141.301 7.28257C141.301 4.77982 143.349 3.21954 146.946 3.21954C150.544 3.21954 152.793 4.83218 152.963 7.71192C152.963 7.88537 152.821 8.02603 152.645 8.02603H151.501C151.292 8.02603 151.122 7.86252 151.096 7.6577C150.828 5.59449 149.134 4.77982 146.957 4.77982C144.665 4.77982 143.201 5.66991 143.201 7.27206C143.201 8.87423 144.484 9.53395 146.596 9.80625L148.22 10.0261C151.254 10.424 153.111 11.6283 153.111 14.3405C153.111 17.105 150.989 18.7805 147.329 18.7805C143.667 18.7805 141.131 17.1154 140.909 14.1729C140.909 13.9995 141.051 13.8588 141.227 13.8588H142.379C142.581 13.8588 142.747 14.0105 142.781 14.2059C143.17 16.3775 145.047 17.2202 147.307 17.2202C149.652 17.2202 151.223 16.2777 151.223 14.4243C151.223 12.6336 149.79 11.9425 147.679 11.6702L146.055 11.4503C143.02 11.0524 141.301 9.80625 141.301 7.28257Z" fill="var(--fill-0, white)"/>
<path id="Vector_10" d="M155.067 3.84634C155.067 3.63317 155.242 3.46037 155.459 3.46037H165.309C165.525 3.46037 165.7 3.63317 165.7 3.84634V4.69752C165.7 4.91068 165.525 5.08348 165.309 5.08348H157.39C157.174 5.08348 156.998 5.25628 156.998 5.46945V9.72393C156.998 9.93712 157.174 10.1099 157.39 10.1099H164.248C164.464 10.1099 164.639 10.2827 164.639 10.4958V11.347C164.639 11.5602 164.464 11.733 164.248 11.733H157.39C157.174 11.733 156.998 11.9058 156.998 12.1189V16.5305C156.998 16.7437 157.174 16.9165 157.39 16.9165H165.457C165.674 16.9165 165.848 17.0893 165.848 17.3024V18.1536C165.848 18.3668 165.674 18.5396 165.457 18.5396H155.459C155.242 18.5396 155.067 18.3668 155.067 18.1536V3.84634Z" fill="var(--fill-0, white)"/>
<path id="Vector_11" d="M172.107 11C172.107 5.99457 175.195 3.16721 179.726 3.16721C184.257 3.16721 187.345 5.99457 187.345 11C187.345 16.0055 184.257 18.8329 179.726 18.8329C175.195 18.8329 172.107 16.0055 172.107 11ZM174.091 11C174.091 14.9374 176.319 17.1783 179.726 17.1783C183.132 17.1783 185.361 14.9374 185.361 11C185.361 7.06268 183.132 4.82174 179.726 4.82174C176.319 4.82174 174.091 7.06268 174.091 11Z" fill="var(--fill-0, white)"/>
<path id="Vector_12" d="M189.3 3.84634C189.3 3.63317 189.476 3.46037 189.691 3.46037H199.139C199.355 3.46037 199.53 3.63317 199.53 3.84634V4.69752C199.53 4.91068 199.355 5.08348 199.139 5.08348H191.623C191.407 5.08348 191.232 5.25628 191.232 5.46945V9.86004C191.232 10.0732 191.407 10.246 191.623 10.246H198.269C198.485 10.246 198.66 10.4188 198.66 10.632V11.4831C198.66 11.6963 198.485 11.8691 198.269 11.8691H191.623C191.407 11.8691 191.232 12.0419 191.232 12.2551V18.1536C191.232 18.3668 191.057 18.5396 190.841 18.5396H189.691C189.476 18.5396 189.3 18.3668 189.3 18.1536V3.84634Z" fill="var(--fill-0, white)"/>
<path id="Vector_13" d="M206.18 7.28257C206.18 4.77982 208.229 3.21954 211.826 3.21954C215.424 3.21954 217.673 4.83218 217.843 7.71192C217.843 7.88537 217.701 8.02603 217.524 8.02603H216.381C216.172 8.02603 216.002 7.86252 215.975 7.6577C215.708 5.59449 214.014 4.77982 211.837 4.77982C209.545 4.77982 208.08 5.66991 208.08 7.27206C208.08 8.87423 209.364 9.53395 211.476 9.80625L213.099 10.0261C216.134 10.424 217.991 11.6283 217.991 14.3405C217.991 17.105 215.869 18.7805 212.208 18.7805C208.547 18.7805 206.011 17.1154 205.788 14.1729C205.788 13.9995 205.931 13.8588 206.106 13.8588H207.259C207.46 13.8588 207.627 14.0105 207.661 14.2059C208.05 16.3775 209.926 17.2202 212.187 17.2202C214.532 17.2202 216.103 16.2777 216.103 14.4243C216.103 12.6336 214.67 11.9425 212.559 11.6702L210.935 11.4503C207.9 11.0524 206.18 9.80625 206.18 7.28257Z" fill="var(--fill-0, white)"/>
<path id="Vector_14" d="M219.947 3.84634C219.947 3.63317 220.122 3.46037 220.338 3.46037H232.545C232.76 3.46037 232.936 3.63317 232.936 3.84634V4.7394C232.936 4.95257 232.76 5.12537 232.545 5.12537H227.809C227.593 5.12537 227.418 5.29817 227.418 5.51133V18.1536C227.418 18.3668 227.242 18.5396 227.027 18.5396H225.857C225.64 18.5396 225.465 18.3668 225.465 18.1536V5.51133C225.465 5.29817 225.29 5.12537 225.074 5.12537H220.338C220.122 5.12537 219.947 4.95257 219.947 4.7394V3.84634Z" fill="var(--fill-0, white)"/>
<path id="Vector_15" d="M238.412 3.71166C238.469 3.56057 238.615 3.46037 238.778 3.46037H240.74C240.903 3.46037 241.049 3.56047 241.106 3.71144L246.576 18.1804C246.587 18.2102 246.593 18.2417 246.593 18.2735C246.593 18.4205 246.472 18.5396 246.323 18.5396H244.924C244.76 18.5396 244.613 18.4386 244.557 18.2867L243.132 14.4573C243.075 14.3053 242.929 14.2043 242.765 14.2043H236.701C236.536 14.2043 236.389 14.3057 236.333 14.458L234.918 18.2859C234.862 18.4382 234.715 18.5396 234.55 18.5396H233.206C233.056 18.5396 232.935 18.4204 232.935 18.2734C232.935 18.2417 232.941 18.2103 232.952 18.1805L238.412 3.71166ZM237.182 12.0309C237.088 12.2827 237.278 12.5498 237.549 12.5498H241.916C242.188 12.5498 242.376 12.2832 242.284 12.0313L239.851 5.4659C239.834 5.41861 239.789 5.38716 239.738 5.38716C239.687 5.38716 239.641 5.41854 239.623 5.46576L237.182 12.0309Z" fill="var(--fill-0, white)"/>
<path id="Vector_16" d="M248.548 3.84634C248.548 3.63317 248.724 3.46037 248.939 3.46037H250.089C250.304 3.46037 250.48 3.63317 250.48 3.84634V9.89397C250.48 9.96117 250.535 10.0157 250.603 10.0157C250.633 10.0157 250.662 10.0049 250.684 9.98537L258.104 3.55629C258.176 3.49447 258.268 3.46037 258.363 3.46037H260.288C260.409 3.46037 260.508 3.55708 260.508 3.67637C260.508 3.73874 260.481 3.79806 260.432 3.83908L252.64 10.5544C252.462 10.7075 252.461 10.9796 252.637 11.1339L260.667 18.1608C260.714 18.2019 260.741 18.2609 260.741 18.3229C260.741 18.4426 260.643 18.5396 260.522 18.5396H258.502C258.406 18.5396 258.314 18.5049 258.242 18.4422L250.684 11.816C250.662 11.7963 250.633 11.7853 250.603 11.7853C250.535 11.7853 250.48 11.8397 250.48 11.9068V18.1536C250.48 18.3668 250.304 18.5396 250.089 18.5396H248.939C248.724 18.5396 248.548 18.3668 248.548 18.1536V3.84634Z" fill="var(--fill-0, white)"/>
<path id="Vector_17" d="M262.697 3.84634C262.697 3.63317 262.872 3.46037 263.087 3.46037H272.939C273.154 3.46037 273.33 3.63317 273.33 3.84634V4.69752C273.33 4.91068 273.154 5.08348 272.939 5.08348H265.019C264.803 5.08348 264.628 5.25628 264.628 5.46945V9.72393C264.628 9.93712 264.803 10.1099 265.019 10.1099H271.877C272.094 10.1099 272.268 10.2827 272.268 10.4958V11.347C272.268 11.5602 272.094 11.733 271.877 11.733H265.019C264.803 11.733 264.628 11.9058 264.628 12.1189V16.5305C264.628 16.7437 264.803 16.9165 265.019 16.9165H273.087C273.303 16.9165 273.478 17.0893 273.478 17.3024V18.1536C273.478 18.3668 273.303 18.5396 273.087 18.5396H263.087C262.872 18.5396 262.697 18.3668 262.697 18.1536V3.84634Z" fill="var(--fill-0, white)"/>
</g>
<defs>
<clipPath id="clip0_4202_371">
<rect width="274" height="22" fill="white"/>
</clipPath>
</defs>
</svg>
