<svg width="500" height="500" viewBox="0 0 500 500" fill="none" xmlns="http://www.w3.org/2000/svg">
<g filter="url(#filter0_n_268_3471)">
<path d="M0 250C0 111.929 111.929 0 250 0C388.071 0 500 111.929 500 250C500 388.071 388.071 500 250 500C111.929 500 0 388.071 0 250Z" fill="#FF7966"/>
<path d="M362.871 109.375C352.246 109.375 342.381 114.776 336.816 123.654L276.852 210.938C274.898 213.815 275.691 217.692 278.625 219.608C281.004 221.162 284.15 220.97 286.316 219.143L345.341 168.95C346.321 168.085 347.833 168.173 348.715 169.135C349.116 169.575 349.329 170.144 349.329 170.729V327.877C349.329 329.175 348.258 330.217 346.933 330.217C346.222 330.217 345.553 329.912 345.103 329.375L166.682 119.984C160.871 113.261 152.339 109.383 143.357 109.375H137.121C120.244 109.375 106.562 122.789 106.562 139.335V360.665C106.562 377.212 120.244 390.625 137.121 390.625C147.745 390.625 157.61 385.225 163.176 376.347L223.14 289.063C225.093 286.186 224.301 282.308 221.366 280.393C218.988 278.838 215.842 279.031 213.676 280.858L154.651 331.05C153.671 331.915 152.159 331.827 151.276 330.865C150.876 330.425 150.663 329.856 150.671 329.271V172.084C150.671 170.785 151.742 169.744 153.066 169.744C153.769 169.744 154.447 170.048 154.897 170.585L333.294 380.016C339.104 386.739 347.637 390.618 356.619 390.625H362.854C379.731 390.634 393.421 377.228 393.438 360.682V139.335C393.438 122.789 379.748 109.375 362.871 109.375Z" fill="black"/>
</g>
<defs>
<filter id="filter0_n_268_3471" x="0" y="0" width="500" height="500" filterUnits="userSpaceOnUse" color-interpolation-filters="sRGB">
<feFlood flood-opacity="0" result="BackgroundImageFix"/>
<feBlend mode="normal" in="SourceGraphic" in2="BackgroundImageFix" result="shape"/>
<feTurbulence type="fractalNoise" baseFrequency="1.8503400087356567 1.8503400087356567" stitchTiles="stitch" numOctaves="3" result="noise" seed="3604" />
<feColorMatrix in="noise" type="luminanceToAlpha" result="alphaNoise" />
<feComponentTransfer in="alphaNoise" result="coloredNoise1">
<feFuncA type="discrete" tableValues="1 1 1 1 1 1 1 1 1 1 1 1 1 1 1 1 1 1 1 1 1 1 1 1 1 1 1 1 1 1 1 1 1 1 1 1 1 1 1 1 1 1 1 1 1 1 1 1 1 1 1 0 0 0 0 0 0 0 0 0 0 0 0 0 0 0 0 0 0 0 0 0 0 0 0 0 0 0 0 0 0 0 0 0 0 0 0 0 0 0 0 0 0 0 0 0 0 0 0 0 "/>
</feComponentTransfer>
<feComposite operator="in" in2="shape" in="coloredNoise1" result="noise1Clipped" />
<feFlood flood-color="rgba(0, 0, 0, 0.08)" result="color1Flood" />
<feComposite operator="in" in2="noise1Clipped" in="color1Flood" result="color1" />
<feMerge result="effect1_noise_268_3471">
<feMergeNode in="shape" />
<feMergeNode in="color1" />
</feMerge>
</filter>
</defs>
</svg>
