<svg preserveAspectRatio="none" width="100%" height="100%" overflow="visible" style="display: block;" viewBox="0 0 200 76.7528" fill="none" xmlns="http://www.w3.org/2000/svg">
<g id="Near House of Stake logo_black2 1" clip-path="url(#clip0_4202_390)">
<path id="Vector" d="M43.8852 0C42.0661 0 40.377 0.958494 39.4241 2.53418L29.157 18.0252C28.8225 18.5358 28.9582 19.224 29.4607 19.5639C29.8679 19.8398 30.4066 19.8057 30.7775 19.4814L40.8837 10.5734C41.0516 10.4198 41.3103 10.4354 41.4615 10.6061C41.5301 10.6843 41.5666 10.7852 41.5666 10.8891V38.7794C41.5666 39.0097 41.3832 39.1946 41.1564 39.1946C41.0347 39.1946 40.9201 39.1406 40.843 39.0453L10.2937 1.88287C9.29875 0.689724 7.83779 0.00142327 6.2999 0H5.2322C2.34252 0 0 2.38061 0 5.31725V44.5985C0 47.5353 2.34252 49.9158 5.2322 49.9158C7.05137 49.9158 8.74037 48.9574 9.69336 47.3817L19.9605 31.8907C20.2949 31.3801 20.1591 30.6919 19.6567 30.352C19.2495 30.0761 18.7108 30.1102 18.3401 30.4345L8.2338 39.3425C8.0659 39.4961 7.80701 39.4804 7.65587 39.3097C7.58731 39.2315 7.55092 39.1306 7.55232 39.0267V11.1294C7.55232 10.899 7.73565 10.7141 7.96236 10.7141C8.08266 10.7141 8.19882 10.7682 8.27579 10.8635L38.821 48.0329C39.8159 49.2261 41.2769 49.9145 42.8148 49.9158H43.8824C46.7721 49.9173 49.1161 47.5381 49.1188 44.6015V5.31725C49.1188 2.38061 46.7748 0 43.8852 0Z" fill="var(--fill-0, #090909)"/>
<path id="Vector_2" d="M83.1838 7.66133C79.459 7.66133 76.7506 8.54332 74.4494 10.5779L70.3859 14.1044C70.0472 14.3764 69.3699 14.5796 68.8968 14.1716C68.4221 13.765 68.355 13.2224 68.761 12.6797L70.9277 9.42384C71.2664 8.94856 70.9962 8.3386 70.3859 8.3386H65.172C64.5632 8.3386 64.0887 8.81387 64.0887 9.42384V41.1691C64.0887 41.7791 64.5632 42.2545 65.172 42.2545H70.589C71.1979 42.2545 71.6723 41.7791 71.6723 41.1691V23.2618C71.6723 15.055 78.5114 13.7664 81.0841 13.7664C86.5683 13.7664 88.5321 17.7009 88.5321 20.6846V41.1691C88.5321 41.7791 89.0059 42.2545 89.6155 42.2545H95.0317C95.6406 42.2545 96.1151 41.7791 96.1151 41.1691V20.0061C96.1151 12.4091 91.1734 7.66133 83.1838 7.66133Z" fill="var(--fill-0, #090909)"/>
<path id="Vector_3" d="M117.593 7.18602C107.098 7.18602 100.395 13.6304 100.395 22.3799V27.1965C100.395 36.4213 107.098 42.7298 117.593 42.7298C126.869 42.7298 133.369 37.9134 134.046 31.4017C134.115 30.723 133.641 30.2491 132.963 30.2491H127.682C127.207 30.2491 126.801 30.521 126.666 30.9949C125.988 33.1655 122.807 36.4213 117.593 36.4213C112.379 36.4213 107.504 32.6229 107.571 27.1965L107.64 21.1601C107.707 16.6156 112.448 13.4958 117.593 13.4958C122.266 13.4958 126.801 16.1417 127.275 20.483C127.314 20.9849 126.97 21.4377 126.476 21.5331L111.294 24.4847C110.686 24.6206 110.211 25.1632 110.211 25.8405V25.9078C110.211 26.5178 110.82 27.0604 111.7 27.0604H133.503C134.103 27.0604 134.587 26.5739 134.587 25.9751V21.7028C134.587 13.6318 127.612 7.18742 117.592 7.18742L117.593 7.18602Z" fill="var(--fill-0, #090909)"/>
<path id="Vector_4" d="M155.388 7.28977C146.925 7.28977 139.613 12.2408 139.613 18.7525C139.613 19.2952 140.087 19.7018 140.696 19.7018H146.18C146.722 19.7018 147.128 19.2952 147.196 18.7525C147.738 15.7687 151.326 13.5982 155.185 13.5982C159.789 13.5982 162.905 16.4474 162.905 21.3312V27.233C162.905 33.2693 158.435 36.3218 152.883 36.3218C148.55 36.3218 146.044 34.6939 146.044 32.0479C146.044 29.7414 147.263 27.7741 152.273 26.6216L159.517 24.6542C160.262 24.4509 160.534 23.8396 160.398 23.1624C160.331 22.6197 159.722 22.3478 159.179 22.3478H151.663C145.3 22.3478 138.866 26.4168 138.866 32.3859V33.3351C138.866 39.4402 144.622 42.6274 151.19 42.6274C155.387 42.6274 158.976 40.9994 161.21 39.101L164.528 36.2518C165.07 35.7765 165.612 35.7765 166.085 36.2518C166.491 36.6584 166.355 37.2696 166.016 37.7437L163.985 40.9321C163.646 41.4075 163.917 42.0174 164.527 42.0174H169.402C170.011 42.0174 170.486 41.5421 170.486 40.9321V20.379C170.486 12.5114 164.866 7.28836 155.386 7.28836L155.388 7.28977Z" fill="var(--fill-0, #090909)"/>
<path id="Vector_5" d="M198.531 8.00007H190.947C188.307 8.00007 185.733 9.62797 183.905 11.1886L180.927 13.7658C180.588 14.0379 179.978 14.2411 179.572 13.9018C179.097 13.5625 178.894 12.8838 179.302 12.3412L181.469 9.08531C181.807 8.61004 181.537 8.00007 180.927 8.00007H175.849C175.24 8.00007 174.765 8.47542 174.765 9.08531V40.8306C174.765 41.4404 175.24 41.9158 175.849 41.9158H181.401C182.01 41.9158 182.484 41.4404 182.484 40.8306V24.5514C182.484 17.5644 185.328 14.4444 191.491 14.4444H198.531C199.14 14.4444 199.615 13.9692 199.615 13.3592V9.08531C199.615 8.47542 199.14 8.00007 198.531 8.00007Z" fill="var(--fill-0, #090909)"/>
<path id="Vector_6" d="M0.000180178 59.5444C0.000180178 59.302 0.196705 59.1055 0.43913 59.1055H1.74062C1.98305 59.1055 2.17957 59.302 2.17957 59.5444V66.2408C2.17957 66.4832 2.3761 66.6797 2.61852 66.6797H10.9345C11.177 66.6797 11.3735 66.4832 11.3735 66.2408V59.5444C11.3735 59.302 11.57 59.1055 11.8125 59.1055H13.1258C13.3683 59.1055 13.5648 59.302 13.5648 59.5444V75.8155C13.5648 76.0583 13.3683 76.2546 13.1258 76.2546H11.8125C11.57 76.2546 11.3735 76.0583 11.3735 75.8155V69.048C11.3735 68.8055 11.177 68.609 10.9345 68.609H2.61852C2.3761 68.609 2.17957 68.8055 2.17957 69.048V75.8155C2.17957 76.0583 1.98305 76.2546 1.74062 76.2546H0.43913C0.196704 76.2546 0.000180178 76.0583 0.000180178 75.8155V59.5444Z" fill="var(--fill-0, #090909)"/>
<path id="Vector_7" d="M15.7595 67.6801C15.7595 61.9875 19.2251 58.772 24.3103 58.772C29.3956 58.772 32.8612 61.9875 32.8612 67.6801C32.8612 73.3727 29.3956 76.5882 24.3103 76.5882C19.2251 76.5882 15.7595 73.3727 15.7595 67.6801ZM17.9865 67.6801C17.9865 72.1579 20.4875 74.7063 24.3103 74.7063C28.1332 74.7063 30.6341 72.1579 30.6341 67.6801C30.6341 63.2022 28.1332 60.6536 24.3103 60.6536C20.4875 60.6536 17.9865 63.2022 17.9865 67.6801Z" fill="var(--fill-0, #090909)"/>
<path id="Vector_8" d="M35.056 59.4016C35.056 59.1591 35.2525 58.9626 35.4949 58.9626H36.7965C37.0388 58.9626 37.2354 59.1591 37.2354 59.4016V69.7404C37.2354 72.813 38.8431 74.4804 41.9753 74.4804C45.1074 74.4804 46.7151 72.813 46.7151 69.7404V59.4016C46.7151 59.1591 46.9117 58.9626 47.1541 58.9626H48.4675C48.7099 58.9626 48.9064 59.1591 48.9064 59.4016V69.788C48.9064 73.8015 46.6317 76.3978 41.9753 76.3978C37.3663 76.3978 35.056 73.8015 35.056 69.788V59.4016Z" fill="var(--fill-0, #090909)"/>
<path id="Vector_9" d="M51.5416 63.4524C51.5416 60.6061 53.8401 58.8316 57.8773 58.8316C61.9145 58.8316 64.4393 60.6656 64.6299 63.9407C64.6299 64.1379 64.4699 64.2979 64.2726 64.2979H62.9893C62.7545 64.2979 62.5637 64.112 62.5339 63.879C62.2337 61.5325 60.3331 60.6061 57.8892 60.6061C55.3168 60.6061 53.6734 61.6184 53.6734 63.4404C53.6734 65.2626 55.1144 66.0128 57.4844 66.3225L59.3064 66.5726C62.7125 67.0252 64.7966 68.3947 64.7966 71.4792C64.7966 74.6229 62.4148 76.5284 58.3061 76.5284C54.1973 76.5284 51.3511 74.6354 51.101 71.2886C51.101 71.0913 51.261 70.9314 51.4582 70.9314H52.7518C52.9774 70.9314 53.1641 71.1039 53.2034 71.3261C53.6396 73.7959 55.7456 74.7542 58.2822 74.7542C60.9142 74.7542 62.6768 73.6824 62.6768 71.5745C62.6768 69.538 61.069 68.752 58.699 68.4424L56.877 68.1923C53.4709 67.7397 51.5416 66.3225 51.5416 63.4524Z" fill="var(--fill-0, #090909)"/>
<path id="Vector_10" d="M66.9914 59.5444C66.9914 59.302 67.188 59.1055 67.4304 59.1055H78.4856C78.7277 59.1055 78.9247 59.302 78.9247 59.5444V60.5124C78.9247 60.7548 78.7277 60.9514 78.4856 60.9514H69.5979C69.3555 60.9514 69.159 61.1479 69.159 61.3903V66.2289C69.159 66.4713 69.3555 66.6678 69.5979 66.6678H77.2945C77.5373 66.6678 77.7336 66.8644 77.7336 67.1068V68.0748C77.7336 68.3172 77.5373 68.5137 77.2945 68.5137H69.5979C69.3555 68.5137 69.159 68.7103 69.159 68.9527V73.9697C69.159 74.2125 69.3555 74.4089 69.5979 74.4089H78.6524C78.8945 74.4089 79.0915 74.6052 79.0915 74.848V75.8155C79.0915 76.0583 78.8945 76.2546 78.6524 76.2546H67.4304C67.188 76.2546 66.9914 76.0583 66.9914 75.8155V59.5444Z" fill="var(--fill-0, #090909)"/>
<path id="Vector_11" d="M86.1144 67.6801C86.1144 61.9875 89.5801 58.772 94.6657 58.772C99.7506 58.772 103.216 61.9875 103.216 67.6801C103.216 73.3727 99.7506 76.5882 94.6657 76.5882C89.5801 76.5882 86.1144 73.3727 86.1144 67.6801ZM88.3417 67.6801C88.3417 72.1579 90.8428 74.7063 94.6657 74.7063C98.4886 74.7063 100.989 72.1579 100.989 67.6801C100.989 63.2022 98.4886 60.6536 94.6657 60.6536C90.8428 60.6536 88.3417 63.2022 88.3417 67.6801Z" fill="var(--fill-0, #090909)"/>
<path id="Vector_12" d="M105.411 59.5444C105.411 59.302 105.607 59.1055 105.85 59.1055H116.452C116.695 59.1055 116.892 59.302 116.892 59.5444V60.5124C116.892 60.7548 116.695 60.9514 116.452 60.9514H108.018C107.775 60.9514 107.579 61.1479 107.579 61.3903V66.3837C107.579 66.6261 107.775 66.8227 108.018 66.8227H115.476C115.718 66.8227 115.915 67.0192 115.915 67.2616V68.2296C115.915 68.472 115.718 68.6686 115.476 68.6686H108.018C107.775 68.6686 107.579 68.8651 107.579 69.1075V75.8155C107.579 76.0583 107.382 76.2546 107.139 76.2546H105.85C105.607 76.2546 105.411 76.0583 105.411 75.8155V59.5444Z" fill="var(--fill-0, #090909)"/>
<path id="Vector_13" d="M124.355 63.4522C124.355 60.6059 126.654 58.8314 130.691 58.8314C134.728 58.8314 137.252 60.6655 137.444 63.9404C137.444 64.1378 137.283 64.2977 137.086 64.2977H135.803C135.568 64.2977 135.377 64.1117 135.348 63.8789C135.047 61.5324 133.146 60.6059 130.703 60.6059C128.131 60.6059 126.487 61.6182 126.487 63.4403C126.487 65.2624 127.928 66.0127 130.297 66.3223L132.12 66.5724C135.526 67.0249 137.61 68.3945 137.61 71.479C137.61 74.6229 135.228 76.5284 131.12 76.5284C127.011 76.5284 124.165 74.6347 123.914 71.2885C123.914 71.0911 124.075 70.9311 124.272 70.9311H125.565C125.791 70.9311 125.978 71.1038 126.017 71.326C126.453 73.7956 128.559 74.7542 131.096 74.7542C133.728 74.7542 135.49 73.6822 135.49 71.5742C135.49 69.5378 133.883 68.7518 131.512 68.4421L129.69 68.192C126.284 67.7395 124.355 66.3223 124.355 63.4522Z" fill="var(--fill-0, #090909)"/>
<path id="Vector_14" d="M139.805 59.5442C139.805 59.3018 140.001 59.1052 140.244 59.1052H153.943C154.185 59.1052 154.382 59.3018 154.382 59.5442V60.5599C154.382 60.8023 154.185 60.9988 153.943 60.9988H148.628C148.385 60.9988 148.189 61.1954 148.189 61.4378V75.8155C148.189 76.0583 147.993 76.2546 147.75 76.2546H146.437C146.194 76.2546 145.998 76.0583 145.998 75.8155V61.4378C145.998 61.1954 145.801 60.9988 145.559 60.9988H140.244C140.001 60.9988 139.805 60.8023 139.805 60.5599V59.5442Z" fill="var(--fill-0, #090909)"/>
<path id="Vector_15" d="M160.528 59.3911C160.592 59.2193 160.756 59.1052 160.939 59.1052H163.139C163.323 59.1052 163.487 59.2191 163.551 59.3908L169.69 75.8458C169.703 75.8797 169.708 75.9159 169.708 75.952C169.708 76.1188 169.573 76.2546 169.406 76.2546H167.836C167.652 76.2546 167.487 76.1395 167.424 75.9668L165.825 71.6118C165.762 71.439 165.597 71.3241 165.413 71.3241H158.607C158.422 71.3241 158.258 71.4394 158.195 71.6127L156.607 75.9661C156.543 76.1395 156.379 76.2546 156.194 76.2546H154.684C154.517 76.2546 154.382 76.1188 154.382 75.952C154.382 75.9159 154.388 75.8797 154.401 75.8465L160.528 59.3911ZM159.148 68.8523C159.042 69.1388 159.255 69.4425 159.559 69.4425H164.461C164.765 69.4425 164.977 69.1393 164.872 68.8528L162.143 61.3861C162.124 61.3323 162.072 61.2966 162.016 61.2966C161.958 61.2966 161.907 61.3323 161.887 61.386L159.148 68.8523Z" fill="var(--fill-0, #090909)"/>
<path id="Vector_16" d="M171.903 59.5442C171.903 59.3018 172.1 59.1052 172.342 59.1052H173.632C173.875 59.1052 174.071 59.3018 174.071 59.5442V66.4221C174.071 66.4985 174.133 66.5604 174.21 66.5604C174.243 66.5604 174.275 66.5482 174.301 66.5261L182.629 59.2144C182.708 59.1441 182.812 59.1052 182.918 59.1052H185.08C185.216 59.1052 185.325 59.2153 185.325 59.3509C185.325 59.4218 185.294 59.4893 185.241 59.5359L176.495 67.1732C176.296 67.3472 176.294 67.6567 176.493 67.8323L185.504 75.8236C185.557 75.8708 185.587 75.9373 185.587 76.0081C185.587 76.1439 185.477 76.2546 185.341 76.2546H183.075C182.967 76.2546 182.863 76.2155 182.783 76.1439L174.301 68.608C174.275 68.5855 174.243 68.5731 174.209 68.5731C174.133 68.5731 174.071 68.6349 174.071 68.7112V75.8155C174.071 76.0583 173.875 76.2546 173.632 76.2546H172.342C172.1 76.2546 171.903 76.0583 171.903 75.8155V59.5442Z" fill="var(--fill-0, #090909)"/>
<path id="Vector_17" d="M187.782 59.5442C187.782 59.3018 187.979 59.1052 188.221 59.1052H199.276C199.519 59.1052 199.715 59.3018 199.715 59.5442V60.5123C199.715 60.7547 199.519 60.9512 199.276 60.9512H190.388C190.146 60.9512 189.95 61.1478 189.95 61.3902V66.2287C189.95 66.4711 190.146 66.6676 190.388 66.6676H198.086C198.328 66.6676 198.524 66.8641 198.524 67.1066V68.0746C198.524 68.317 198.328 68.5136 198.086 68.5136H190.388C190.146 68.5136 189.95 68.7101 189.95 68.9526V73.9697C189.95 74.2118 190.146 74.4089 190.388 74.4089H199.443C199.686 74.4089 199.882 74.6052 199.882 74.8472V75.8155C199.882 76.0583 199.686 76.2546 199.443 76.2546H188.221C187.979 76.2546 187.782 76.0583 187.782 75.8155V59.5442Z" fill="var(--fill-0, #090909)"/>
</g>
<defs>
<clipPath id="clip0_4202_390">
<rect width="200" height="76.7528" fill="white"/>
</clipPath>
</defs>
</svg>
