<svg width="1000" height="81" viewBox="0 0 1000 81" fill="none" xmlns="http://www.w3.org/2000/svg">
<path d="M71.5347 0C68.5693 0 65.816 1.55538 64.263 4.11229L47.527 29.2499C46.9819 30.0787 47.2032 31.1954 48.0221 31.747C48.6858 32.1946 49.564 32.1392 50.1685 31.6133L66.642 17.1577C66.9158 16.9085 67.3375 16.9339 67.584 17.2108C67.6958 17.3377 67.7551 17.5016 67.7551 17.67V62.9286C67.7551 63.3023 67.4562 63.6022 67.0866 63.6022C66.8882 63.6022 66.7013 63.5147 66.5759 63.36L16.7791 3.0554C15.1573 1.11924 12.7759 0.00230959 10.2691 0H8.52869C3.8184 0 0 3.86307 0 8.62849V72.3714C0 77.1371 3.8184 81 8.52869 81C11.494 81 14.2472 79.4448 15.8006 76.8878L32.5365 51.7501C33.0814 50.9216 32.8604 49.8048 32.0412 49.253C31.3774 48.8054 30.4995 48.8608 29.895 49.387L13.4214 63.8424C13.1477 64.0916 12.7257 64.066 12.4794 63.7891C12.3676 63.6623 12.3083 63.4985 12.3106 63.33V18.06C12.3106 17.6862 12.6094 17.3862 12.9789 17.3862C13.1751 17.3862 13.3644 17.4739 13.4899 17.6285L63.2798 77.9445C64.9016 79.8809 67.2829 80.9979 69.7898 81H71.5302C76.2404 81.0023 80.0612 77.1415 80.0656 72.3764V8.62849C80.0656 3.86307 76.2449 0 71.5347 0Z" fill="#090909"/>
<path d="M135.458 12.4324C129.387 12.4324 124.972 13.8636 121.221 17.1651L114.597 22.8876C114.045 23.329 112.941 23.6589 112.17 22.9968C111.396 22.337 111.287 21.4564 111.949 20.5759L115.48 15.2925C116.032 14.5211 115.592 13.5313 114.597 13.5313H106.098C105.106 13.5313 104.333 14.3027 104.333 15.2925V66.8065C104.333 67.7962 105.106 68.5678 106.098 68.5678H114.928C115.921 68.5678 116.694 67.7962 116.694 66.8065V37.7479C116.694 24.4303 127.842 22.3392 132.035 22.3392C140.975 22.3392 144.176 28.7239 144.176 33.5656V66.8065C144.176 67.7962 144.949 68.5678 145.942 68.5678H154.771C155.764 68.5678 156.537 67.7962 156.537 66.8065V32.4646C156.537 20.1367 148.481 12.4324 135.458 12.4324Z" fill="#090909"/>
<path d="M191.547 11.6611C174.439 11.6611 163.513 22.1186 163.513 36.3168V44.1328C163.513 59.1021 174.439 69.3392 191.547 69.3392C206.667 69.3392 217.262 61.5234 218.366 50.9566C218.479 49.8553 217.705 49.0863 216.601 49.0863H207.992C207.219 49.0863 206.557 49.5276 206.336 50.2966C205.232 53.819 200.045 59.1021 191.547 59.1021C183.048 59.1021 175.101 52.9382 175.211 44.1328L175.322 34.3375C175.432 26.9628 183.16 21.9002 191.547 21.9002C199.163 21.9002 206.557 26.1939 207.328 33.2385C207.392 34.053 206.831 34.7877 206.026 34.9426L181.28 39.7324C180.287 39.9529 179.514 40.8334 179.514 41.9324V42.0416C179.514 43.0314 180.506 43.912 181.941 43.912H217.481C218.458 43.912 219.247 43.1226 219.247 42.1509V35.218C219.247 22.1209 207.878 11.6634 191.544 11.6634L191.547 11.6611Z" fill="#090909"/>
<path d="M253.154 11.8292C239.358 11.8292 227.439 19.8635 227.439 30.4301C227.439 31.3109 228.212 31.9706 229.205 31.9706H238.144C239.027 31.9706 239.688 31.3109 239.8 30.4301C240.683 25.5883 246.533 22.066 252.824 22.066C260.328 22.066 265.407 26.6894 265.407 34.6146V44.1917C265.407 53.987 258.121 58.9405 249.07 58.9405C242.007 58.9405 237.922 56.2986 237.922 52.0051C237.922 48.2621 239.91 45.0699 248.076 43.1993L259.885 40.0071C261.099 39.6771 261.541 38.6853 261.32 37.5863C261.211 36.7055 260.218 36.2642 259.333 36.2642H247.083C236.709 36.2642 226.223 42.8672 226.223 52.5535V54.0938C226.223 64.0007 235.605 69.1726 246.31 69.1726C253.152 69.1726 259.002 66.531 262.643 63.4501L268.052 58.8268C268.937 58.0555 269.819 58.0555 270.59 58.8268C271.252 59.4866 271.031 60.4785 270.478 61.2477L267.168 66.4218C266.617 67.1931 267.055 68.1829 268.05 68.1829H275.997C276.989 68.1829 277.764 67.4115 277.764 66.4218V33.0696C277.764 20.3026 268.603 11.8269 253.15 11.8269L253.154 11.8292Z" fill="#090909"/>
<path d="M323.48 12.9822H311.116C306.814 12.9822 302.617 15.6238 299.638 18.1563L294.782 22.3384C294.231 22.7798 293.236 23.1097 292.575 22.5591C291.801 22.0085 291.47 20.9072 292.134 20.0266L295.667 14.7433C296.218 13.9719 295.777 12.9822 294.782 12.9822H286.507C285.512 12.9822 284.74 13.7535 284.74 14.7433V66.2572C284.74 67.2469 285.512 68.0183 286.507 68.0183H295.557C296.549 68.0183 297.323 67.2469 297.323 66.2572V39.8404C297.323 28.5025 301.958 23.4397 312.003 23.4397H323.48C324.473 23.4397 325.244 22.6683 325.244 21.6785V14.7433C325.244 13.7535 324.473 12.9822 323.48 12.9822Z" fill="#090909"/>
<path d="M348.084 14.1615C348.084 13.3767 348.724 12.7405 349.512 12.7405H353.745C354.533 12.7405 355.173 13.3767 355.173 14.1615V35.8404C355.173 36.6251 355.811 37.2613 356.598 37.2613H383.643C384.43 37.2613 385.071 36.6251 385.071 35.8404V14.1615C385.071 13.3767 385.709 12.7405 386.499 12.7405H390.769C391.556 12.7405 392.197 13.3767 392.197 14.1615V66.8383C392.197 67.6233 391.556 68.2595 390.769 68.2595H386.499C385.709 68.2595 385.071 67.6233 385.071 66.8383V44.9284C385.071 44.1434 384.43 43.5072 383.643 43.5072H356.598C355.811 43.5072 355.173 44.1434 355.173 44.9284V66.8383C355.173 67.6233 354.533 68.2595 353.745 68.2595H349.512C348.724 68.2595 348.084 67.6233 348.084 66.8383V14.1615Z" fill="#090909"/>
<path d="M399.333 40.5C399.333 22.0709 410.604 11.6611 427.142 11.6611C443.677 11.6611 454.948 22.0709 454.948 40.5C454.948 58.9294 443.677 69.3392 427.142 69.3392C410.604 69.3392 399.333 58.9294 399.333 40.5ZM406.578 40.5C406.578 54.9967 414.709 63.2474 427.142 63.2474C439.572 63.2474 447.706 54.9967 447.706 40.5C447.706 26.0035 439.572 17.7528 427.142 17.7528C414.709 17.7528 406.578 26.0035 406.578 40.5Z" fill="#090909"/>
<path d="M462.086 13.6989C462.086 12.9141 462.724 12.2778 463.512 12.2778H467.745C468.533 12.2778 469.173 12.9141 469.173 13.6989V47.1701C469.173 57.1172 474.401 62.5149 484.588 62.5149C494.771 62.5149 500 57.1172 500 47.1701V13.6989C500 12.9141 500.64 12.2778 501.428 12.2778H505.698C506.488 12.2778 507.126 12.9141 507.126 13.6989V47.3243C507.126 60.3172 499.73 68.7221 484.588 68.7221C469.598 68.7221 462.086 60.3172 462.086 47.3243V13.6989Z" fill="#090909"/>
<path d="M515.698 26.8131C515.698 17.5984 523.171 11.8538 536.299 11.8538C549.431 11.8538 557.64 17.7912 558.26 28.3939C558.26 29.0325 557.74 29.5504 557.097 29.5504H552.924C552.16 29.5504 551.541 28.9484 551.444 28.1943C550.467 20.5979 544.286 17.5984 536.339 17.5984C527.974 17.5984 522.63 20.8756 522.63 26.7744C522.63 32.6733 527.315 35.1023 535.024 36.1048L540.948 36.9143C552.024 38.3794 558.801 42.8132 558.801 52.7989C558.801 62.9775 551.055 69.1463 537.696 69.1463C524.333 69.1463 515.076 63.0159 514.265 52.182C514.265 51.5434 514.785 51.0256 515.425 51.0256H519.633C520.367 51.0256 520.974 51.5842 521.1 52.3035C522.52 60.299 529.368 63.4016 537.617 63.4016C546.176 63.4016 551.908 59.9316 551.908 53.1075C551.908 46.5147 546.68 43.9699 538.974 42.9676L533.047 42.1579C521.971 40.6928 515.698 36.1048 515.698 26.8131Z" fill="#090909"/>
<path d="M565.939 14.1615C565.939 13.3767 566.577 12.7405 567.367 12.7405H603.317C604.105 12.7405 604.745 13.3767 604.745 14.1615V17.2954C604.745 18.0802 604.105 18.7165 603.317 18.7165H574.415C573.627 18.7165 572.987 19.3527 572.987 20.1375V35.8018C572.987 36.5867 573.627 37.2229 574.415 37.2229H599.443C600.233 37.2229 600.871 37.8589 600.871 38.6438V41.7777C600.871 42.5626 600.233 43.1989 599.443 43.1989H574.415C573.627 43.1989 572.987 43.8351 572.987 44.6198V60.8624C572.987 61.6473 573.627 62.2835 574.415 62.2835H603.858C604.648 62.2835 605.286 62.9198 605.286 63.7044V66.8383C605.286 67.6233 604.648 68.2595 603.858 68.2595H567.367C566.577 68.2595 565.939 67.6233 565.939 66.8383V14.1615Z" fill="#090909"/>
<path d="M628.126 40.5C628.126 22.0709 639.396 11.6611 655.934 11.6611C672.47 11.6611 683.74 22.0709 683.74 40.5C683.74 58.9294 672.47 69.3392 655.934 69.3392C639.396 69.3392 628.126 58.9294 628.126 40.5ZM635.367 40.5C635.367 54.9967 643.501 63.2474 655.934 63.2474C668.365 63.2474 676.499 54.9967 676.499 40.5C676.499 26.0035 668.365 17.7528 655.934 17.7528C643.501 17.7528 635.367 26.0035 635.367 40.5Z" fill="#090909"/>
<path d="M690.876 14.1615C690.876 13.3767 691.517 12.7405 692.304 12.7405H726.785C727.572 12.7405 728.212 13.3767 728.212 14.1615V17.2954C728.212 18.0802 727.572 18.7165 726.785 18.7165H699.354C698.564 18.7165 697.926 19.3527 697.926 20.1375V36.3029C697.926 37.0878 698.564 37.7241 699.354 37.7241H723.609C724.396 37.7241 725.037 38.3603 725.037 39.145V42.2789C725.037 43.0638 724.396 43.7 723.609 43.7H699.354C698.564 43.7 697.926 44.3363 697.926 45.1209V66.8383C697.926 67.6233 697.289 68.2595 696.499 68.2595H692.304C691.517 68.2595 690.876 67.6233 690.876 66.8383V14.1615Z" fill="#090909"/>
<path d="M752.483 26.8131C752.483 17.5984 759.958 11.8538 773.087 11.8538C786.218 11.8538 794.428 17.7912 795.047 28.3939C795.047 29.0325 794.528 29.5504 793.885 29.5504H789.712C788.948 29.5504 788.328 28.9484 788.231 28.1943C787.255 20.5979 781.074 17.5984 773.126 17.5984C764.761 17.5984 759.418 20.8756 759.418 26.7744C759.418 32.6733 764.103 35.1023 771.809 36.1048L777.735 36.9143C788.811 38.3794 795.588 42.8132 795.588 52.7989C795.588 62.9775 787.843 69.1463 774.483 69.1463C761.121 69.1463 751.864 63.0159 751.053 52.182C751.053 51.5434 751.572 51.0256 752.213 51.0256H756.42C757.153 51.0256 757.761 51.5842 757.887 52.3035C759.307 60.299 766.155 63.4016 774.404 63.4016C782.964 63.4016 788.696 59.9316 788.696 53.1075C788.696 46.5147 783.467 43.9699 775.761 42.9676L769.835 42.1579C758.759 40.6928 752.483 36.1048 752.483 26.8131Z" fill="#090909"/>
<path d="M802.727 14.1615C802.727 13.3767 803.365 12.7405 804.155 12.7405H848.703C849.491 12.7405 850.131 13.3767 850.131 14.1615V17.4496C850.131 18.2345 849.491 18.8707 848.703 18.8707H831.42C830.63 18.8707 829.992 19.5069 829.992 20.2917V66.8383C829.992 67.6233 829.352 68.2595 828.564 68.2595H824.294C823.504 68.2595 822.866 67.6233 822.866 66.8383V20.2917C822.866 19.5069 822.226 18.8707 821.438 18.8707H804.155C803.365 18.8707 802.727 18.2345 802.727 17.4496V14.1615Z" fill="#090909"/>
<path d="M870.115 13.6657C870.325 13.1094 870.858 12.7405 871.454 12.7405H878.611C879.207 12.7405 879.74 13.109 879.947 13.6648L899.911 66.9371C899.953 67.0466 899.974 67.1626 899.974 67.2797C899.974 67.8208 899.533 68.2595 898.989 68.2595H893.882C893.283 68.2595 892.748 67.8877 892.543 67.3283L887.344 53.229C887.136 52.6696 886.601 52.2978 886.002 52.2978H863.871C863.27 52.2978 862.735 52.6709 862.53 53.2319L857.365 67.3254C857.16 67.8861 856.624 68.2595 856.023 68.2595H851.115C850.569 68.2595 850.128 67.8205 850.128 67.2794C850.128 67.1626 850.149 67.0468 850.191 66.9374L870.115 13.6657ZM865.627 44.2955C865.286 45.2228 865.976 46.2061 866.968 46.2061H882.905C883.897 46.2061 884.585 45.2244 884.247 44.2971L875.37 20.1245C875.307 19.9504 875.142 19.8346 874.955 19.8346C874.769 19.8346 874.601 19.9501 874.538 20.1239L865.627 44.2955Z" fill="#090909"/>
<path d="M907.11 14.1615C907.11 13.3767 907.751 12.7405 908.538 12.7405H912.732C913.52 12.7405 914.16 13.3767 914.16 14.1615V36.4278C914.16 36.6752 914.36 36.8759 914.609 36.8759C914.719 36.8759 914.824 36.8362 914.906 36.7643L941.987 13.0936C942.249 12.866 942.583 12.7405 942.929 12.7405H949.958C950.399 12.7405 950.759 13.0965 950.759 13.5357C950.759 13.7654 950.659 13.9838 950.483 14.1348L922.042 38.8594C921.394 39.423 921.391 40.4248 922.034 40.9931L951.341 66.8647C951.512 67.016 951.609 67.2334 951.609 67.4615C951.609 67.9023 951.252 68.2595 950.808 68.2595H943.438C943.089 68.2595 942.751 68.1317 942.491 67.9007L914.906 43.5043C914.824 43.4317 914.719 43.3915 914.609 43.3915C914.36 43.3915 914.16 43.5916 914.16 43.8385V66.8383C914.16 67.6233 913.52 68.2595 912.732 68.2595H908.538C907.751 68.2595 907.11 67.6233 907.11 66.8383V14.1615Z" fill="#090909"/>
<path d="M958.748 14.1615C958.748 13.3767 959.386 12.7405 960.173 12.7405H996.126C996.913 12.7405 997.554 13.3767 997.554 14.1615V17.2954C997.554 18.0802 996.913 18.7165 996.126 18.7165H967.223C966.436 18.7165 965.795 19.3527 965.795 20.1375V35.8018C965.795 36.5867 966.436 37.2229 967.223 37.2229H992.252C993.042 37.2229 993.68 37.8589 993.68 38.6438V41.7777C993.68 42.5626 993.042 43.1989 992.252 43.1989H967.223C966.436 43.1989 965.795 43.8351 965.795 44.6198V60.8624C965.795 61.6473 966.436 62.2835 967.223 62.2835H996.667C997.457 62.2835 998.094 62.9198 998.094 63.7044V66.8383C998.094 67.6233 997.457 68.2595 996.667 68.2595H960.173C959.386 68.2595 958.748 67.6233 958.748 66.8383V14.1615Z" fill="#090909"/>
</svg>
