<svg width="32" height="32" viewBox="0 0 32 32" fill="none" xmlns="http://www.w3.org/2000/svg">
<rect width="32" height="32" fill="#FF7966"/>
<g clip-path="url(#clip0_2399_24015)">
<path d="M23.3772 6.625C22.6828 6.625 22.038 6.98504 21.6743 7.57692L17.755 13.3958C17.6273 13.5876 17.6791 13.8461 17.8709 13.9739C18.0264 14.0775 18.232 14.0646 18.3736 13.9429L22.2314 10.5967C22.2955 10.539 22.3943 10.5449 22.452 10.609C22.4782 10.6384 22.4921 10.6763 22.4921 10.7153V21.1918C22.4921 21.2783 22.4221 21.3478 22.3355 21.3478C22.289 21.3478 22.2453 21.3275 22.2159 21.2917L10.5544 7.33227C10.1746 6.88408 9.6169 6.62553 9.02984 6.625H8.62227C7.5192 6.625 6.625 7.51923 6.625 8.62233V23.3777C6.625 24.4808 7.5192 25.375 8.62227 25.375C9.3167 25.375 9.96144 25.015 10.3252 24.4231L14.2445 18.6042C14.3721 18.4124 14.3203 18.1539 14.1285 18.0262C13.9731 17.9226 13.7674 17.9354 13.6259 18.0572L9.76807 21.4033C9.70397 21.461 9.60515 21.4551 9.54746 21.391C9.52128 21.3616 9.5074 21.3237 9.50793 21.2847V10.8056C9.50793 10.719 9.5779 10.6496 9.66444 10.6496C9.71038 10.6496 9.75472 10.6699 9.7841 10.7057L21.4441 24.6677C21.8238 25.1159 22.3815 25.3745 22.9686 25.375H23.3761C24.4792 25.3756 25.3739 24.4818 25.375 23.3788V8.62233C25.375 7.51923 24.4802 6.625 23.3772 6.625Z" fill="black"/>
</g>
<defs>
<clipPath id="clip0_2399_24015">
<rect width="20" height="20" fill="white" transform="translate(6 6)"/>
</clipPath>
</defs>
</svg>
