<svg width="14" height="14" viewBox="0 0 14 14" fill="none" xmlns="http://www.w3.org/2000/svg">
<path d="M1.3125 6.125C1.3125 7.30078 1.69531 8.33984 2.37891 9.1875C2.76172 9.625 3.0625 10.2266 3.0625 10.9102V13.3438C3.0625 13.7266 2.76172 14 2.40625 14C2.02344 14 1.75 13.7266 1.75 13.3438V10.9102C1.75 10.6094 1.61328 10.3086 1.36719 10.0078C0.492188 8.94141 0 7.60156 0 6.125C0 2.76172 2.73438 0 6.125 0H6.78125C8.91406 0 10.9102 1.3125 11.7852 3.19922C11.8945 3.44531 12.0039 3.69141 12.1133 3.9375L12.1406 4.01953C12.25 4.29297 12.3867 4.56641 12.4961 4.8125C12.7422 5.33203 13.0156 5.76953 13.3711 6.09766L13.4805 6.23438C13.8086 6.5625 14 7 14 7.46484C14 8.42188 13.207 9.1875 12.25 9.1875V10.5C12.25 11.4844 11.457 12.25 10.5 12.25H8.75V13.3438C8.75 13.7266 8.44922 14 8.09375 14C7.71094 14 7.4375 13.7266 7.4375 13.3438V11.5938C7.4375 11.2383 7.71094 10.9375 8.09375 10.9375H10.5C10.7188 10.9375 10.9375 10.7461 10.9375 10.5V8.53125C10.9375 8.17578 11.2109 7.875 11.5938 7.875H12.25C12.4961 7.875 12.6875 7.68359 12.6875 7.46484C12.6875 7.35547 12.6328 7.24609 12.5508 7.16406L12.4414 7.02734C11.9219 6.53516 11.5938 5.96094 11.3203 5.38672C11.1836 5.11328 11.0469 4.8125 10.9375 4.53906L10.9102 4.45703C10.8008 4.21094 10.6914 3.96484 10.582 3.74609C9.92578 2.32422 8.42188 1.3125 6.78125 1.3125H6.125C3.44531 1.3125 1.3125 3.47266 1.3125 6.125ZM9.1875 5.35938L9.10547 5.41406C8.85938 5.55078 8.72266 5.85156 8.72266 6.125C8.72266 6.42578 8.85938 6.69922 9.10547 6.86328L9.1875 6.89062C9.35156 7 9.43359 7.21875 9.37891 7.38281C9.32422 7.54688 9.24219 7.68359 9.16016 7.82031L9.10547 7.92969C9.02344 8.09375 8.94141 8.20312 8.83203 8.33984C8.69531 8.50391 8.47656 8.53125 8.3125 8.42188L8.23047 8.36719C7.98438 8.23047 7.68359 8.25781 7.41016 8.42188C7.16406 8.55859 6.97266 8.80469 6.97266 9.10547V9.1875C6.97266 9.37891 6.83594 9.57031 6.64453 9.59766C6.48047 9.625 6.28906 9.625 6.09766 9.625C5.93359 9.625 5.74219 9.625 5.55078 9.59766C5.35938 9.57031 5.22266 9.37891 5.22266 9.1875V9.10547C5.22266 8.80469 5.03125 8.55859 4.78516 8.42188C4.53906 8.25781 4.23828 8.23047 3.99219 8.36719L3.91016 8.42188C3.71875 8.53125 3.5 8.50391 3.39062 8.33984C3.28125 8.20312 3.19922 8.09375 3.11719 7.92969L3.03516 7.82031C2.95312 7.68359 2.89844 7.54688 2.84375 7.41016C2.76172 7.21875 2.84375 7 3.03516 6.91797L3.11719 6.86328C3.36328 6.72656 3.47266 6.42578 3.47266 6.125C3.47266 5.85156 3.36328 5.55078 3.11719 5.41406L3.03516 5.35938C2.84375 5.27734 2.76172 5.05859 2.84375 4.86719C2.89844 4.73047 2.98047 4.59375 3.03516 4.42969L3.11719 4.34766C3.19922 4.18359 3.28125 4.07422 3.39062 3.9375C3.5 3.77344 3.74609 3.74609 3.91016 3.85547L3.99219 3.91016C4.23828 4.04688 4.53906 4.01953 4.78516 3.85547C5.05859 3.71875 5.22266 3.47266 5.22266 3.17188V3.08984C5.22266 2.89844 5.35938 2.70703 5.57812 2.67969C5.74219 2.65234 5.93359 2.625 6.09766 2.625C6.28906 2.625 6.48047 2.65234 6.64453 2.67969C6.86328 2.70703 6.97266 2.89844 6.97266 3.08984V3.17188C6.97266 3.47266 7.16406 3.71875 7.4375 3.85547C7.68359 4.01953 7.98438 4.04688 8.23047 3.91016L8.3125 3.85547C8.47656 3.74609 8.69531 3.77344 8.83203 3.9375C8.94141 4.07422 9.02344 4.18359 9.10547 4.32031L9.1875 4.42969C9.24219 4.59375 9.32422 4.73047 9.37891 4.86719C9.46094 5.05859 9.35156 5.27734 9.1875 5.35938ZM5.03125 6.125C5.03125 6.53516 5.22266 6.89062 5.57812 7.08203C5.90625 7.27344 6.31641 7.27344 6.67188 7.08203C7 6.89062 7.21875 6.53516 7.21875 6.125C7.21875 5.74219 7 5.38672 6.67188 5.19531C6.31641 5.00391 5.90625 5.00391 5.57812 5.19531C5.22266 5.38672 5.03125 5.74219 5.03125 6.125Z" fill="#FF7966"/>
</svg>
