<svg width="14" height="14" viewBox="0 0 14 14" fill="none" xmlns="http://www.w3.org/2000/svg">
<path d="M7.30078 0.0820312L13.5078 3.52734C13.8086 3.69141 14 3.99219 14 4.32031C14 4.83984 13.5625 5.25 13.043 5.25H0.929688C0.410156 5.25 0 4.83984 0 4.32031C0 3.99219 0.164062 3.69141 0.464844 3.52734L6.67188 0.0820312C6.86328 -0.0273438 7.10938 -0.0273438 7.30078 0.0820312ZM6.23438 3.9375C6.15234 3.82812 6.125 3.66406 6.125 3.5C6.125 3.03516 6.50781 2.625 7 2.625C7.46484 2.625 7.875 3.03516 7.875 3.5C7.875 3.66406 7.82031 3.82812 7.73828 3.9375H11.5664L7 1.42188L2.40625 3.9375H6.23438ZM1.75 6.125H3.0625V10.5H4.8125V6.125H6.125V10.5H7.875V6.125H9.1875V10.5H10.9375V6.125H12.25V10.5H12.4688C12.8242 10.5 13.125 10.8008 13.125 11.1562C13.125 11.5391 12.8242 11.8125 12.4688 11.8125H1.75C1.36719 11.8125 1.09375 11.5391 1.09375 11.1562C1.09375 10.8008 1.36719 10.5 1.75 10.5V6.125ZM0.875 12.6875H13.3438C13.6992 12.6875 14 12.9883 14 13.3438C14 13.7266 13.6992 14 13.3438 14H0.875C0.492188 14 0.21875 13.7266 0.21875 13.3438C0.21875 12.9883 0.492188 12.6875 0.875 12.6875Z" fill="#757575"/>
</svg>
